RBDS023runT45_grf
version=1
nRows=24
nColumns=19
inDegrees=no
endheader
time	ground_force_r_vx	ground_force_r_vy	ground_force_r_vz	ground_force_r_px	ground_force_r_py	ground_force_r_pz	ground_force_r_mx	ground_force_r_my	ground_force_r_mz	ground_force_l_vx	ground_force_l_vy	ground_force_l_vz	ground_force_l_px	ground_force_l_py	ground_force_l_pz	ground_force_l_mx	ground_force_l_my	ground_force_l_mz
     14.99900000	    -77.81591688	    510.59970027	     12.35582610	      2.54748822	      0.00000000	      1.07034532	      0.00000000	      1.54404929	     -0.00000000	      0.00000000	      0.00000000	      0.00000000	      0.00000000	      0.00000000	      0.00000000	      0.00000000	      0.00000000	      0.00000000
     15.00000000	    -82.80616535	    546.43240375	     11.82520711	      2.54757789	      0.00000000	      1.07033167	      0.00000000	      1.57139536	     -0.00000000	      0.00000000	      0.00000000	      0.00000000	      0.00000000	      0.00000000	      0.00000000	      0.00000000	      0.00000000	      0.00000000
     15.00100000	    -88.02497452	    580.55510081	     11.25471330	      2.54760138	      0.00000000	      1.07031950	      0.00000000	      1.62364559	     -0.00000000	      0.00000000	      0.00000000	      0.00000000	      0.00000000	      0.00000000	      0.00000000	      0.00000000	      0.00000000	      0.00000000
     15.00200000	    -93.24378370	    614.67779787	     10.68421950	      2.54762488	      0.00000000	      1.07030733	      0.00000000	      1.67589582	     -0.00000000	      0.00000000	      0.00000000	      0.00000000	      0.00000000	      0.00000000	      0.00000000	      0.00000000	      0.00000000	      0.00000000
     15.00300000	    -98.46259287	    648.80049494	     10.11372570	      2.54764837	      0.00000000	      1.07029516	      0.00000000	      1.72814604	     -0.00000000	      0.00000000	      0.00000000	      0.00000000	      0.00000000	      0.00000000	      0.00000000	      0.00000000	      0.00000000	      0.00000000
     15.00400000	   -103.83848784	    681.59225563	      9.52879463	      2.54761173	      0.00000000	      1.07028424	      0.00000000	      1.79978804	     -0.00000000	      0.00000000	      0.00000000	      0.00000000	      0.00000000	      0.00000000	      0.00000000	      0.00000000	      0.00000000	      0.00000000
     15.00500000	   -109.29292571	    713.71854813	      8.93664492	      2.54754502	      0.00000000	      1.07027394	      0.00000000	      1.88112591	     -0.00000000	      0.00000000	      0.00000000	      0.00000000	      0.00000000	      0.00000000	      0.00000000	      0.00000000	      0.00000000	      0.00000000
     15.00600000	   -114.74736357	    745.84484064	      8.34449521	      2.54747830	      0.00000000	      1.07026364	      0.00000000	      1.96246379	     -0.00000000	      0.00000000	      0.00000000	      0.00000000	      0.00000000	      0.00000000	      0.00000000	      0.00000000	      0.00000000	      0.00000000
     15.00700000	   -120.27506361	    777.23456711	      7.74939018	      2.54737368	      0.00000000	      1.07025416	      0.00000000	      2.05440152	     -0.00000000	      0.00000000	      0.00000000	      0.00000000	      0.00000000	      0.00000000	      0.00000000	      0.00000000	      0.00000000	      0.00000000
     15.00800000	   -125.94928797	    807.15116152	      7.14837451	      2.54719322	      0.00000000	      1.07024635	      0.00000000	      2.16753897	     -0.00000000	      0.00000000	      0.00000000	      0.00000000	      0.00000000	      0.00000000	      0.00000000	      0.00000000	      0.00000000	      0.00000000
     15.00900000	   -131.62351233	    837.06775593	      6.54735883	      2.54701276	      0.00000000	      1.07023855	      0.00000000	      2.28067642	     -0.00000000	      0.00000000	      0.00000000	      0.00000000	      0.00000000	      0.00000000	      0.00000000	      0.00000000	      0.00000000	      0.00000000
     15.01000000	   -137.29773670	    866.98435033	      5.94634316	      2.54683230	      0.00000000	      1.07023074	      0.00000000	      2.39381387	     -0.00000000	      0.00000000	      0.00000000	      0.00000000	      0.00000000	      0.00000000	      0.00000000	      0.00000000	      0.00000000	      0.00000000
     15.01100000	   -143.15215730	    894.55644304	      5.34398261	      2.54651547	      0.00000000	      1.07022623	      0.00000000	      2.53992935	     -0.00000000	      0.00000000	      0.00000000	      0.00000000	      0.00000000	      0.00000000	      0.00000000	      0.00000000	      0.00000000	      0.00000000
     15.01200000	   -149.00657791	    922.12853574	      4.74162206	      2.54619864	      0.00000000	      1.07022173	      0.00000000	      2.68604483	     -0.00000000	      0.00000000	      0.00000000	      0.00000000	      0.00000000	      0.00000000	      0.00000000	      0.00000000	      0.00000000	      0.00000000
     15.01300000	   -154.86099851	    949.70062845	      4.13926152	      2.54588181	      0.00000000	      1.07021723	      0.00000000	      2.83216031	     -0.00000000	      0.00000000	      0.00000000	      0.00000000	      0.00000000	      0.00000000	      0.00000000	      0.00000000	      0.00000000	      0.00000000
     15.01400000	   -160.79365584	    975.67351325	      3.53782211	      2.54545987	      0.00000000	      1.07021556	      0.00000000	      3.00002680	     -0.00000000	      0.00000000	      0.00000000	      0.00000000	      0.00000000	      0.00000000	      0.00000000	      0.00000000	      0.00000000	      0.00000000
     15.01500000	   -166.76543152	   1000.84679409	      2.93684327	      2.54498536	      0.00000000	      1.07021530	      0.00000000	      3.17876880	     -0.00000000	      0.00000000	      0.00000000	      0.00000000	      0.00000000	      0.00000000	      0.00000000	      0.00000000	      0.00000000	      0.00000000
     15.01600000	   -172.73720721	   1026.02007494	      2.33586443	      2.54451085	      0.00000000	      1.07021504	      0.00000000	      3.35751080	     -0.00000000	      0.00000000	      0.00000000	      0.00000000	      0.00000000	      0.00000000	      0.00000000	      0.00000000	      0.00000000	      0.00000000
     15.01700000	   -178.72000123	   1050.40184947	      1.73491087	      2.54397724	      0.00000000	      1.07021651	      0.00000000	      3.54651824	     -0.00000000	      0.00000000	      0.00000000	      0.00000000	      0.00000000	      0.00000000	      0.00000000	      0.00000000	      0.00000000	      0.00000000
     15.01800000	   -184.72483190	   1073.20061136	      1.13400784	      2.54332540	      0.00000000	      1.07022147	      0.00000000	      3.75605656	     -0.00000000	      0.00000000	      0.00000000	      0.00000000	      0.00000000	      0.00000000	      0.00000000	      0.00000000	      0.00000000	      0.00000000
     15.01900000	   -190.72966257	   1095.99937326	      0.53310481	      2.54267357	      0.00000000	      1.07022643	      0.00000000	      3.96559488	     -0.00000000	      0.00000000	      0.00000000	      0.00000000	      0.00000000	      0.00000000	      0.00000000	      0.00000000	      0.00000000	      0.00000000
     15.02000000	   -196.73449325	   1118.79813515	     -0.06779821	      2.54202173	      0.00000000	      1.07023139	      0.00000000	      4.17513320	     -0.00000000	      0.00000000	      0.00000000	      0.00000000	      0.00000000	      0.00000000	      0.00000000	      0.00000000	      0.00000000	      0.00000000
     15.02100000	   -202.66957332	   1139.31926446	     -0.67293128	      2.54117489	      0.00000000	      1.07024250	      0.00000000	      4.41224658	     -0.00000000	      0.00000000	      0.00000000	      0.00000000	      0.00000000	      0.00000000	      0.00000000	      0.00000000	      0.00000000	      0.00000000
     15.02200000	   -208.60465340	   1159.84039377	     -1.27806434	      2.54032805	      0.00000000	      1.07025362	      0.00000000	      4.64935995	     -0.00000000	      0.00000000	      0.00000000	      0.00000000	      0.00000000	      0.00000000	      0.00000000	      0.00000000	      0.00000000	      0.00000000
